<svg viewBox="0 0 200 200" xmlns="http://www.w3.org/2000/svg">
  <defs>
    <linearGradient id="f" x1="0" y1="0" x2="0" y2="1">
      <stop offset="0" stop-color="#F2C94C"/>
      <stop offset="1" stop-color="#7A5C11"/>
    </linearGradient>
  </defs>
  <rect width="200" height="200" fill="url(#f)"/>
  <path d="M42 105 A58 26 0 0 0 158 105 L158 123 A58 26 0 0 1 42 123 Z" fill="#0A0A0B"/>
  <path d="M58 100 Q100 55 142 100 Q100 85 58 100 Z" fill="#0A0A0B"/>
  <g fill="#0A0A0B">
    <circle cx="50" cy="101" r="5"/>
    <circle cx="65" cy="98" r="5"/>
    <circle cx="80" cy="96" r="5"/>
    <circle cx="95" cy="95" r="5"/>
    <circle cx="110" cy="95" r="5"/>
    <circle cx="125" cy="96" r="5"/>
    <circle cx="140" cy="98" r="5"/>
    <circle cx="150" cy="101" r="5"/>
  </g>
  <path d="M70 108 A58 26 0 0 0 130 108" fill="none" stroke="url(#f)" stroke-width="2.5" opacity=".55"/>
  <path d="M58 100 Q80 70 100 55" fill="none" stroke="#FBEFC9" stroke-width="3.5" stroke-linecap="round" opacity=".8"/>
</svg>
