<svg viewBox="0 0 200 200" xmlns="http://www.w3.org/2000/svg">
  <defs>
    <linearGradient id="f" x1="0" y1="0" x2="0" y2="1">
      <stop offset="0" stop-color="#4FC9D6"/>
      <stop offset="1" stop-color="#1B5A64"/>
    </linearGradient>
  </defs>
  <rect width="200" height="200" fill="url(#f)"/>
  <g transform="rotate(-20 62 158)">
    <rect x="50" y="112" width="26" height="46" rx="6" fill="#0A0A0B"/>
    <rect x="48" y="90" width="56" height="30" rx="8" fill="#0A0A0B"/>
    <rect x="98" y="98" width="70" height="16" rx="4" fill="#0A0A0B"/>
    <circle cx="112" cy="90" r="18" fill="#0A0A0B"/>
    <path d="M70 118 Q60 130 70 140" fill="none" stroke="#0A0A0B" stroke-width="7" stroke-linecap="round"/>
    <g fill="#0A0A0B">
      <path d="M105 98 L110 88 L115 98 Z"/>
      <path d="M123 98 L128 88 L133 98 Z"/>
      <path d="M141 98 L146 88 L151 98 Z"/>
      <path d="M155 98 L160 88 L165 98 Z"/>
    </g>
    <circle cx="112" cy="90" r="8" fill="url(#f)" opacity=".55"/>
    <rect x="56" y="120" width="14" height="28" rx="3" fill="url(#f)" opacity=".5"/>
    <path d="M50 92 L50 116" fill="none" stroke="#DFF6F9" stroke-width="3.5" stroke-linecap="round" opacity=".8"/>
    <path d="M100 99 L150 99" fill="none" stroke="#DFF6F9" stroke-width="3" stroke-linecap="round" opacity=".7"/>
  </g>
</svg>
