<svg viewBox="0 0 200 200" xmlns="http://www.w3.org/2000/svg">
  <defs>
    <linearGradient id="f" x1="0" y1="0" x2="0" y2="1">
      <stop offset="0" stop-color="#D08046"/>
      <stop offset="1" stop-color="#5E3520"/>
    </linearGradient>
  </defs>
  <rect width="200" height="200" fill="url(#f)"/>
  <path d="M44 131.9 A34 34 0 1 1 44 88.1" fill="none" stroke="#0A0A0B" stroke-width="18" stroke-linecap="round"/>
  <path d="M98 104 L136 99" fill="none" stroke="#0A0A0B" stroke-width="10" stroke-linecap="round"/>
  <g stroke="#0A0A0B" stroke-width="5" stroke-linecap="round">
    <line x1="162" y1="98" x2="176" y2="98"/>
    <line x1="159.1" y1="105.1" x2="169" y2="115"/>
    <line x1="152" y1="108" x2="152" y2="122"/>
    <line x1="144.9" y1="105.1" x2="135" y2="115"/>
    <line x1="142" y1="98" x2="128" y2="98"/>
    <line x1="144.9" y1="90.9" x2="135" y2="81"/>
    <line x1="152" y1="88" x2="152" y2="74"/>
    <line x1="159.1" y1="90.9" x2="169" y2="81"/>
  </g>
  <circle cx="152" cy="98" r="11" fill="#0A0A0B"/>
  <circle cx="152" cy="98" r="3" fill="url(#f)"/>
  <circle cx="44" cy="131.9" r="4" fill="url(#f)"/>
  <circle cx="44" cy="88.1" r="4" fill="url(#f)"/>
  <path d="M44 88 A34 34 0 0 1 76 77" fill="none" stroke="#F6E2CE" stroke-width="3.5" stroke-linecap="round" opacity=".8"/>
</svg>
