<svg viewBox="0 0 200 200" xmlns="http://www.w3.org/2000/svg">
  <defs>
    <linearGradient id="f" x1="0" y1="0" x2="0" y2="1">
      <stop offset="0" stop-color="#D08046"/>
      <stop offset="1" stop-color="#5E3520"/>
    </linearGradient>
  </defs>
  <rect width="200" height="200" fill="url(#f)"/>
  <path d="M47.4 130.7 A40 40 0 1 1 47.4 79.3" fill="none" stroke="#0A0A0B" stroke-width="22" stroke-linecap="round"/>
  <path d="M110 102 L124 100" fill="none" stroke="#0A0A0B" stroke-width="22" stroke-linecap="round"/>
  <circle cx="132" cy="100" r="18" fill="#0A0A0B"/>
  <g stroke="#0A0A0B" stroke-width="6" stroke-linecap="round">
    <line x1="149" y1="100" x2="165" y2="100"/>
    <line x1="144" y1="112" x2="155.3" y2="123.3"/>
    <line x1="132" y1="117" x2="132" y2="133"/>
    <line x1="120" y1="112" x2="108.7" y2="123.3"/>
    <line x1="115" y1="100" x2="99" y2="100"/>
    <line x1="120" y1="88" x2="108.7" y2="76.7"/>
    <line x1="132" y1="83" x2="132" y2="67"/>
    <line x1="144" y1="88" x2="155.3" y2="76.7"/>
  </g>
  <circle cx="132" cy="100" r="4" fill="url(#f)"/>
  <circle cx="47.4" cy="130.7" r="4.5" fill="url(#f)"/>
  <circle cx="47.4" cy="79.3" r="4.5" fill="url(#f)"/>
  <path d="M47.4 79.3 A40 40 0 0 1 84.9 65.6" fill="none" stroke="#F6E2CE" stroke-width="3.5" stroke-linecap="round" opacity=".8"/>
</svg>
